<svg width="1747" height="1026" viewBox="0 0 1747 1026" fill="none" xmlns="http://www.w3.org/2000/svg">
<ellipse cx="845.306" cy="972.975" rx="6.14771" ry="7.25302" fill="#0078B8"/>
<ellipse cx="630.137" cy="869.18" rx="5.12305" ry="6.04413" fill="#0078B8"/>
<ellipse cx="1148.59" cy="959.975" rx="5.12311" ry="6.04425" fill="#0078B8"/>
<ellipse cx="1187.25" cy="269.054" rx="4" ry="2.99405" fill="#0078B8"/>
<ellipse cx="1625.99" cy="650.133" rx="5.12311" ry="3.74258" fill="#0078B8"/>
<ellipse cx="1627.3" cy="1021.72" rx="5.12311" ry="3.74258" fill="#0078B8"/>
<line y1="-0.15" x2="849.276" y2="-0.15" transform="matrix(-0.158623 0.987339 -0.975897 -0.218232 978.616 138.957)" stroke="#0078B8" stroke-width="0.3"/>
<line y1="-0.15" x2="810.212" y2="-0.15" transform="matrix(-0.431921 0.901911 -0.832081 -0.554654 978.616 140.783)" stroke="#0078B8" stroke-width="0.3"/>
<line y1="-0.15" x2="286.103" y2="-0.15" transform="matrix(-0.963368 0.268182 -0.196113 -0.980581 978.616 140.783)" stroke="#0078B8" stroke-width="0.3"/>
<line y1="-0.15" x2="646.8" y2="-0.15" transform="matrix(-0.995907 0.0903821 -0.0650622 -0.997881 978.616 140.783)" stroke="#0078B8" stroke-width="0.3"/>
<line y1="-0.15" x2="871.964" y2="-0.15" transform="matrix(-0.999781 0.0209509 -0.0150534 -0.999887 978.616 140.783)" stroke="#0078B8" stroke-width="0.3"/>
<line y1="-0.15" x2="988.94" y2="-0.15" transform="matrix(-0.981732 0.19027 -0.137909 -0.990445 978.616 140.783)" stroke="#0078B8" stroke-width="0.3"/>
<line y1="-0.15" x2="994.422" y2="-0.15" transform="matrix(-0.920263 0.391301 -0.292154 -0.956371 978.616 140.783)" stroke="#0078B8" stroke-width="0.3"/>
<line y1="-0.15" x2="872.28" y2="-0.15" transform="matrix(-0.813027 0.582226 -0.457488 -0.889216 978.616 140.783)" stroke="#0078B8" stroke-width="0.3"/>
<line y1="-0.15" x2="1064.53" y2="-0.15" transform="matrix(-0.715653 0.698456 -0.574104 -0.818782 978.616 140.783)" stroke="#0078B8" stroke-width="0.3"/>
<line y1="-0.15" x2="1079.02" y2="-0.15" transform="matrix(0.744265 0.667885 -0.541854 0.840472 978.616 140.783)" stroke="#0078B8" stroke-width="0.3"/>
<line y1="-0.15" x2="225.888" y2="-0.15" transform="matrix(0.689834 -0.723967 0.602031 0.798472 1625.86 1024.98)" stroke="#0078B8" stroke-width="0.3"/>
<line y1="-0.15" x2="545.208" y2="-0.15" transform="matrix(0.956073 0.29313 -0.215112 0.976589 1260.43 701.626)" stroke="#0078B8" stroke-width="0.3"/>
<line y1="-0.15" x2="545.208" y2="-0.15" transform="matrix(0.956073 0.29313 -0.215112 0.976589 1260.43 701.626)" stroke="#0078B8" stroke-width="0.3"/>
<line y1="-0.15" x2="642.643" y2="-0.15" transform="matrix(0.987009 -0.160664 0.116154 0.993231 1147.4 964.692)" stroke="#0078B8" stroke-width="0.3"/>
<line y1="-0.15" x2="948.014" y2="-0.15" transform="matrix(0.992481 -0.122401 0.0882569 0.996098 840.805 977.48)" stroke="#0078B8" stroke-width="0.3"/>
<line y1="-0.15" x2="1153.07" y2="-0.15" transform="matrix(0.999962 -0.00874224 0.00628095 0.99998 628.667 871.523)" stroke="#0078B8" stroke-width="0.3"/>
<line y1="-0.15" x2="1565.07" y2="-0.15" transform="matrix(0.999893 -0.0146117 0.0104981 0.999945 216.782 884.311)" stroke="#0078B8" stroke-width="0.3"/>
<line y1="-0.15" x2="1527.16" y2="-0.15" transform="matrix(0.990245 0.13934 -0.10058 0.994929 269.429 648.647)" stroke="#0078B8" stroke-width="0.3"/>
<line y1="-0.15" x2="1749.9" y2="-0.15" transform="matrix(0.981888 0.189463 -0.137313 0.990528 63.4861 529.902)" stroke="#0078B8" stroke-width="0.3"/>
<line y1="-0.15" x2="1852.15" y2="-0.15" transform="matrix(0.95778 0.287501 -0.210808 0.977528 7.74231 328.949)" stroke="#0078B8" stroke-width="0.3"/>
<line y1="-0.15" x2="1816.17" y2="-0.15" transform="matrix(0.922188 0.386743 -0.288483 0.957485 106.843 159.052)" stroke="#0078B8" stroke-width="0.3"/>
<line y1="-0.15" x2="1591.53" y2="-0.15" transform="matrix(0.90933 0.416077 -0.312288 0.949988 334.464 199.243)" stroke="#0078B8" stroke-width="0.3"/>
<line y1="-0.15" x2="626.282" y2="-0.15" transform="matrix(0.445039 0.895511 -0.822411 0.568893 978.616 140.783)" stroke="#0078B8" stroke-width="0.3"/>
<line y1="-0.15" x2="841.019" y2="-0.15" transform="matrix(0.200686 0.979656 -0.96167 0.27421 978.616 140.783)" stroke="#0078B8" stroke-width="0.3"/>
<line y1="-0.15" x2="1095.57" y2="-0.15" transform="matrix(0.591594 0.806236 -0.699598 0.714537 978.616 140.783)" stroke="#0078B8" stroke-width="0.3"/>
<ellipse cx="1219.63" cy="12.8" rx="4.15479" ry="2.99406" fill="#0078B8"/>
<ellipse cx="1660.45" cy="137.755" rx="4.66711" ry="3.36832" fill="#0078B8"/>
<ellipse cx="218.774" cy="881.796" rx="4.61076" ry="5.43979" fill="#0078B8"/>
<ellipse cx="1256.77" cy="701.361" rx="5.12311" ry="3.74258" fill="#0078B8"/>
<ellipse cx="273.982" cy="549.208" rx="5.12307" ry="5.14208" fill="#0078B8"/>
<ellipse cx="63.4861" cy="450.814" rx="7.74221" ry="7.77095" fill="#0078B8"/>
<ellipse cx="705.497" cy="183.422" rx="5.12307" ry="5.14208" fill="#0078B8"/>
<ellipse cx="1509.73" cy="5.50625" rx="4.66711" ry="5.50625" fill="#0078B8"/>
<ellipse cx="978.127" cy="140.426" rx="4.15479" ry="2.99405" fill="#0078B8"/>
<ellipse cx="6" cy="328.797" rx="6" ry="4.49109" fill="#0078B8"/>
<ellipse cx="108.322" cy="159.331" rx="5.12308" ry="3.74257" fill="#0078B8"/>
<ellipse cx="335.82" cy="198.885" rx="4" ry="2.99406" fill="#0078B8"/>
<line y1="-0.15" x2="262.434" y2="-0.15" transform="matrix(0.920448 -0.390866 0.388417 0.921484 978.616 119.771)" stroke="#0078B8" stroke-width="0.3"/>
<line y1="-0.15" x2="272.004" y2="-0.15" transform="matrix(0.916528 0.39997 -0.397485 0.917609 978.616 119.771)" stroke="#0078B8" stroke-width="0.3"/>
<line y1="-0.15" x2="499.96" y2="-0.15" transform="matrix(-0.811449 -0.584423 0.581571 -0.813496 1633.61 520.753)" stroke="#0078B8" stroke-width="0.3"/>
<line y1="-0.15" x2="749.956" y2="-0.15" transform="matrix(-0.739167 -0.673522 0.670792 -0.741646 1782.26 733.677)" stroke="#0078B8" stroke-width="0.3"/>
<line y1="-0.15" x2="756.553" y2="-0.15" transform="matrix(-0.526004 -0.850482 0.848731 -0.528825 1625.86 872)" stroke="#0078B8" stroke-width="0.3"/>
<line y1="-0.15" x2="369.516" y2="-0.15" transform="matrix(-0.0796187 -0.996825 0.996778 -0.080207 1257.34 596.908)" stroke="#0078B8" stroke-width="0.3"/>
<line y1="-0.15" x2="597.596" y2="-0.15" transform="matrix(0.134738 -0.990881 0.990747 0.135722 1147.4 820.711)" stroke="#0078B8" stroke-width="0.3"/>
<line y1="-0.15" x2="714.917" y2="-0.15" transform="matrix(0.537144 -0.84349 0.841679 0.539978 843.901 831.591)" stroke="#0078B8" stroke-width="0.3"/>
<line y1="-0.15" x2="788.763" y2="-0.15" transform="matrix(0.759731 -0.650237 0.647453 0.762105 628.667 741.448)" stroke="#0078B8" stroke-width="0.3"/>
<line y1="-0.15" x2="1138.73" y2="-0.15" transform="matrix(0.887944 -0.459951 0.457267 0.889329 216.782 752.327)" stroke="#0078B8" stroke-width="0.3"/>
<line y1="-0.15" x2="1011.53" y2="-0.15" transform="matrix(0.947557 -0.319586 0.317465 0.94827 269.429 551.836)" stroke="#0078B8" stroke-width="0.3"/>
<line y1="-0.15" x2="1185.45" y2="-0.15" transform="matrix(0.982268 -0.187481 0.186145 0.982522 63.4861 450.814)" stroke="#0078B8" stroke-width="0.3"/>
<line y1="-0.15" x2="1221.25" y2="-0.15" transform="matrix(0.999118 -0.0419965 0.041687 0.999131 7.74231 279.853)" stroke="#0078B8" stroke-width="0.3"/>
<line y1="-0.15" x2="1124.94" y2="-0.15" transform="matrix(0.996558 0.0828943 -0.0822864 0.996609 106.843 135.313)" stroke="#0078B8" stroke-width="0.3"/>
<line y1="-0.15" x2="895.402" y2="-0.15" transform="matrix(0.997822 0.0659584 -0.0654735 0.997854 334.464 169.506)" stroke="#0078B8" stroke-width="0.3"/>
<line y1="-0.15" x2="526.723" y2="-0.15" transform="matrix(0.996581 0.0826191 -0.0820132 0.996631 702.993 185.048)" stroke="#0078B8" stroke-width="0.3"/>
<line y1="-0.15" x2="543.426" y2="-0.15" transform="matrix(0.977348 -0.211639 0.210146 0.97767 978.616 119.771)" stroke="#0078B8" stroke-width="0.3"/>
<line y1="-0.15" x2="685.976" y2="-0.15" transform="matrix(0.995462 0.0951578 -0.0944616 0.995529 978.616 119.771)" stroke="#0078B8" stroke-width="0.3"/>
<line y1="-0.15" x2="435.59" y2="-0.15" transform="matrix(0.995349 -0.0963363 0.0956316 0.995417 1227.92 227.011)" stroke="#0078B8" stroke-width="0.3"/>
<line y1="-0.15" x2="336.86" y2="-0.15" transform="matrix(0.0827405 -0.996571 0.99652 0.0833516 1633.61 520.753)" stroke="#0078B8" stroke-width="0.3"/>
<line y1="-0.15" x2="561.767" y2="-0.15" transform="matrix(-0.214998 -0.976615 0.976278 -0.216522 1782.26 733.677)" stroke="#0078B8" stroke-width="0.3"/>
<line y1="-0.15" x2="577.028" y2="-0.15" transform="matrix(0.700388 -0.713762 0.711162 0.703028 1257.34 596.908)" stroke="#0078B8" stroke-width="0.3"/>
<line y1="-0.15" x2="687.875" y2="-0.15" transform="matrix(0.0517742 -0.998659 0.998639 0.0521583 1625.86 872)" stroke="#0078B8" stroke-width="0.3"/>
<line y1="-0.15" x2="817.527" y2="-0.15" transform="matrix(0.628827 -0.777545 0.77526 0.631642 1147.4 820.711)" stroke="#0078B8" stroke-width="0.3"/>
<line y1="-0.15" x2="1038.69" y2="-0.15" transform="matrix(0.782651 -0.62246 0.619633 0.784892 848.547 831.591)" stroke="#0078B8" stroke-width="0.3"/>
<line y1="-0.15" x2="1173.15" y2="-0.15" transform="matrix(0.880375 -0.474279 0.471558 0.881835 628.667 741.448)" stroke="#0078B8" stroke-width="0.3"/>
<line y1="-0.15" x2="1552.08" y2="-0.15" transform="matrix(0.930813 -0.365496 0.363155 0.931729 216.782 752.327)" stroke="#0078B8" stroke-width="0.3"/>
<line y1="-0.15" x2="1439.56" y2="-0.15" transform="matrix(0.966996 -0.254792 0.253032 0.967458 269.429 551.836)" stroke="#0078B8" stroke-width="0.3"/>
<line y1="-0.15" x2="1619.94" y2="-0.15" transform="matrix(0.98645 -0.164059 0.16288 0.986646 63.4861 450.814)" stroke="#0078B8" stroke-width="0.3"/>
<line y1="-0.15" x2="1656.36" y2="-0.15" transform="matrix(0.998414 -0.0562989 0.0558845 0.998437 7.74231 278.299)" stroke="#0078B8" stroke-width="0.3"/>
<line y1="-0.15" x2="1555.43" y2="-0.15" transform="matrix(0.999489 0.0319745 -0.0317386 0.999496 106.843 135.313)" stroke="#0078B8" stroke-width="0.3"/>
<line y1="-0.15" x2="1327.11" y2="-0.15" transform="matrix(0.999931 0.0117111 -0.0116247 0.999932 334.464 169.506)" stroke="#0078B8" stroke-width="0.3"/>
<line x1="702.993" y1="184.898" x2="1661.48" y2="184.898" stroke="#0078B8" stroke-width="0.3"/>
<line y1="-0.15" x2="767.984" y2="-0.15" transform="matrix(0.852871 0.522122 -0.519309 0.854586 978.616 119.771)" stroke="#0078B8" stroke-width="0.3"/>
<line y1="-0.15" x2="289.826" y2="-0.15" transform="matrix(0.999079 -0.0429 0.0425839 0.999093 1220.17 17.1951)" stroke="#0078B8" stroke-width="0.3"/>
<line y1="-0.15" x2="472.15" y2="-0.15" transform="matrix(0.934674 0.355507 -0.353211 0.935544 1220.17 17.1951)" stroke="#0078B8" stroke-width="0.3"/>
<line y1="-0.15" x2="651.535" y2="-0.15" transform="matrix(0.634554 0.772879 -0.770566 0.63736 1220.17 17.1951)" stroke="#0078B8" stroke-width="0.3"/>
<line y1="-0.15" x2="580.903" y2="-0.15" transform="matrix(0.0639739 0.997952 -0.997921 0.0644478 1220.17 17.1951)" stroke="#0078B8" stroke-width="0.3"/>
<line y1="-0.15" x2="806.806" y2="-0.15" transform="matrix(-0.0902037 0.995923 -0.995863 -0.090869 1220.17 17.1951)" stroke="#0078B8" stroke-width="0.3"/>
<line y1="-0.15" x2="946.191" y2="-0.15" transform="matrix(0.428763 0.903417 -0.902179 0.431361 1220.17 17.1951)" stroke="#0078B8" stroke-width="0.3"/>
<line y1="-0.15" x2="910.651" y2="-0.15" transform="matrix(0.617234 0.78678 -0.784551 0.620064 1220.17 17.1951)" stroke="#0078B8" stroke-width="0.3"/>
<line y1="-0.15" x2="235.649" y2="-0.15" transform="matrix(0.643956 0.765063 -0.762705 0.646746 1509.73 4.76099)" stroke="#0078B8" stroke-width="0.3"/>
<line y1="-0.15" x2="359.873" y2="-0.15" transform="matrix(-0.7831 0.621896 -0.619068 -0.785338 1509.73 4.76099)" stroke="#0078B8" stroke-width="0.3"/>
<line y1="-0.15" x2="530.653" y2="-0.15" transform="matrix(0.23344 0.972371 -0.971976 0.23508 1509.73 4.76099)" stroke="#0078B8" stroke-width="0.3"/>
<line y1="-0.15" x2="259.68" y2="-0.15" transform="matrix(-0.572438 -0.819948 0.81795 -0.57529 1782.26 733.677)" stroke="#0078B8" stroke-width="0.3"/>
<line y1="-0.15" x2="351.33" y2="-0.15" transform="matrix(0.0220367 -0.999757 0.999754 0.0222005 1625.86 872)" stroke="#0078B8" stroke-width="0.3"/>
<line y1="-0.15" x2="571.294" y2="-0.15" transform="matrix(0.85107 -0.525052 0.522236 0.852801 1147.4 820.711)" stroke="#0078B8" stroke-width="0.3"/>
<line y1="-0.15" x2="383.901" y2="-0.15" transform="matrix(0.980127 -0.198372 0.196965 0.980411 1257.34 596.908)" stroke="#0078B8" stroke-width="0.3"/>
<line y1="-0.15" x2="851.561" y2="-0.15" transform="matrix(0.930999 -0.365021 0.362682 0.931913 840.805 831.591)" stroke="#0078B8" stroke-width="0.3"/>
<line y1="-0.15" x2="1028.89" y2="-0.15" transform="matrix(0.976724 -0.214499 0.212987 0.977055 628.667 741.448)" stroke="#0078B8" stroke-width="0.3"/>
<line y1="-0.15" x2="1435.63" y2="-0.15" transform="matrix(0.986905 -0.161306 0.160145 0.987094 216.782 752.327)" stroke="#0078B8" stroke-width="0.3"/>
<line y1="-0.15" x2="1364.53" y2="-0.15" transform="matrix(0.999741 -0.0227799 0.0226118 0.999744 269.429 551.836)" stroke="#0078B8" stroke-width="0.3"/>
<line y1="-0.15" x2="1571.68" y2="-0.15" transform="matrix(0.999009 0.0444993 -0.0441714 0.999024 63.4861 450.814)" stroke="#0078B8" stroke-width="0.3"/>
<line y1="-0.15" x2="1643.61" y2="-0.15" transform="matrix(0.989201 0.146567 -0.145508 0.989357 7.74231 279.853)" stroke="#0078B8" stroke-width="0.3"/>
<line y1="-0.15" x2="1574.67" y2="-0.15" transform="matrix(0.96958 0.244775 -0.243075 0.970008 106.843 135.313)" stroke="#0078B8" stroke-width="0.3"/>
<line y1="-0.15" x2="1345.79" y2="-0.15" transform="matrix(0.96534 0.260997 -0.2592 0.965824 334.464 169.506)" stroke="#0078B8" stroke-width="0.3"/>
<line y1="-0.15" x2="989.313" y2="-0.15" transform="matrix(0.940667 0.339331 -0.337112 0.941465 702.993 185.048)" stroke="#0078B8" stroke-width="0.3"/>
<line y1="-0.15" x2="778.195" y2="-0.15" transform="matrix(0.350202 0.936674 -0.935818 0.352485 1509.73 4.76099)" stroke="#0078B8" stroke-width="0.3"/>
<line y1="-0.15" x2="874.98" y2="-0.15" transform="matrix(0.132727 0.991153 -0.991022 0.133696 1509.73 4.76099)" stroke="#0078B8" stroke-width="0.3"/>
<line y1="-0.15" x2="643.693" y2="-0.15" transform="matrix(-0.392106 0.91992 -0.918866 -0.39457 1509.73 4.76099)" stroke="#0078B8" stroke-width="0.3"/>
<line y1="-0.15" x2="892.783" y2="-0.15" transform="matrix(-0.40585 0.91394 -0.912818 -0.408366 1509.73 4.76099)" stroke="#0078B8" stroke-width="0.3"/>
<line y1="-0.15" x2="1061.59" y2="-0.15" transform="matrix(-0.6272 0.778858 -0.776581 -0.630018 1509.73 4.76099)" stroke="#0078B8" stroke-width="0.3"/>
<path d="M1509.83 4.87817L628.765 741.564" stroke="#0078B8" stroke-width="0.3"/>
<line y1="-0.15" x2="1493.51" y2="-0.15" transform="matrix(-0.865261 0.501322 -0.498543 -0.866865 1509.73 4.76099)" stroke="#0078B8" stroke-width="0.3"/>
<line y1="-0.15" x2="1355.6" y2="-0.15" transform="matrix(-0.91495 0.403568 -0.401069 -0.916048 1509.73 4.76099)" stroke="#0078B8" stroke-width="0.3"/>
<line y1="-0.15" x2="1513.47" y2="-0.15" transform="matrix(-0.955583 0.294722 -0.292733 -0.956194 1509.73 4.76099)" stroke="#0078B8" stroke-width="0.3"/>
<line y1="-0.15" x2="1526.97" y2="-0.15" transform="matrix(-0.983818 0.17917 -0.177889 -0.984051 1509.73 4.76099)" stroke="#0078B8" stroke-width="0.3"/>
<line y1="-0.15" x2="1408.95" y2="-0.15" transform="matrix(-0.995698 0.092659 -0.0919808 -0.995761 1509.73 4.76099)" stroke="#0078B8" stroke-width="0.3"/>
<line y1="-0.15" x2="1186.76" y2="-0.15" transform="matrix(-0.990368 0.138461 -0.137458 -0.990508 1509.73 4.76099)" stroke="#0078B8" stroke-width="0.3"/>
<line y1="-0.15" x2="211.511" y2="-0.15" transform="matrix(-0.0366042 -0.99933 0.99932 -0.0368761 1227.92 228.565)" stroke="#0078B8" stroke-width="0.3"/>
<line y1="-0.15" x2="897.118" y2="-0.15" transform="matrix(0.419423 -0.907791 0.906601 0.421988 843.901 831.591)" stroke="#0078B8" stroke-width="0.3"/>
<line y1="-0.15" x2="935.105" y2="-0.15" transform="matrix(0.632555 -0.774515 0.772212 0.635365 628.667 741.448)" stroke="#0078B8" stroke-width="0.3"/>
<line y1="-0.15" x2="1243.87" y2="-0.15" transform="matrix(0.806669 -0.591004 0.588154 0.808749 216.782 752.327)" stroke="#0078B8" stroke-width="0.3"/>
<line y1="-0.15" x2="543.737" y2="-0.15" transform="matrix(0.951159 -0.308702 0.306638 0.951826 702.993 185.048)" stroke="#0078B8" stroke-width="0.3"/>
<line y1="-0.15" x2="1090.76" y2="-0.15" transform="matrix(0.871635 -0.490155 0.487399 0.873179 269.429 551.836)" stroke="#0078B8" stroke-width="0.3"/>
<line y1="-0.15" x2="1235.29" y2="-0.15" transform="matrix(0.936366 -0.351025 0.34875 0.937216 63.4861 450.814)" stroke="#0078B8" stroke-width="0.3"/>
<line y1="-0.15" x2="1240.56" y2="-0.15" transform="matrix(0.977329 -0.211726 0.210233 0.977651 7.74231 279.853)" stroke="#0078B8" stroke-width="0.3"/>
<line y1="-0.15" x2="1119.58" y2="-0.15" transform="matrix(0.994419 -0.105503 0.104732 0.9945 106.843 135.313)" stroke="#0078B8" stroke-width="0.3"/>
<line y1="-0.15" x2="898.71" y2="-0.15" transform="matrix(0.985534 -0.169477 0.168261 0.985742 334.464 169.506)" stroke="#0078B8" stroke-width="0.3"/>
</svg>
