<svg width="1747" height="873" viewBox="0 0 1747 873" fill="aqua" xmlns="http://www.w3.org/2000/svg">
<ellipse cx="845.306" cy="823.253" rx="6.14771" ry="6.13691" fill="#0078B8"/>
<ellipse cx="630.137" cy="735.431" rx="5.12305" ry="5.11409" fill="#0078B8"/>
<ellipse cx="1148.59" cy="812.254" rx="5.12311" ry="5.11411" fill="#0078B8"/>
<ellipse cx="1227.4" cy="226.733" rx="4.15479" ry="4.14752" fill="#0078B8"/>
<ellipse cx="1630.99" cy="515.304" rx="5.12311" ry="5.11407" fill="#0078B8"/>
<ellipse cx="1625.3" cy="862.645" rx="5.12311" ry="5.11411" fill="#0078B8"/>
<line y1="-0.15" x2="722.168" y2="-0.15" transform="matrix(-0.186542 0.982447 -0.982566 -0.185912 978.616 117.574)" stroke="#0078B8" stroke-width="0.3"/>
<line y1="-0.15" x2="710.458" y2="-0.15" transform="matrix(-0.492567 0.870274 -0.871013 -0.491261 978.616 119.12)" stroke="#0078B8" stroke-width="0.3"/>
<line y1="-0.15" x2="283.165" y2="-0.15" transform="matrix(-0.973363 0.229268 -0.23003 -0.973184 978.616 119.12)" stroke="#0078B8" stroke-width="0.3"/>
<line y1="-0.15" x2="646.049" y2="-0.15" transform="matrix(-0.997065 0.0765631 -0.0768302 -0.997044 978.616 119.12)" stroke="#0078B8" stroke-width="0.3"/>
<line y1="-0.15" x2="871.909" y2="-0.15" transform="matrix(-0.999843 0.0177281 -0.0177903 -0.999842 978.616 119.12)" stroke="#0078B8" stroke-width="0.3"/>
<line y1="-0.15" x2="983.841" y2="-0.15" transform="matrix(-0.986819 0.161825 -0.162378 -0.986729 978.616 119.12)" stroke="#0078B8" stroke-width="0.3"/>
<line y1="-0.15" x2="972.555" y2="-0.15" transform="matrix(-0.940955 0.338532 -0.339583 -0.940576 978.616 119.12)" stroke="#0078B8" stroke-width="0.3"/>
<line y1="-0.15" x2="829.216" y2="-0.15" transform="matrix(-0.85525 0.518217 -0.519545 -0.854443 978.616 119.12)" stroke="#0078B8" stroke-width="0.3"/>
<line y1="-0.15" x2="988.015" y2="-0.15" transform="matrix(-0.771075 0.636744 -0.63807 -0.769978 978.616 119.12)" stroke="#0078B8" stroke-width="0.3"/>
<line y1="-0.15" x2="1008.34" y2="-0.15" transform="matrix(0.796436 0.604723 -0.606067 0.795414 978.616 119.12)" stroke="#0078B8" stroke-width="0.3"/>
<line y1="-0.15" x2="208.394" y2="-0.15" transform="matrix(0.747744 -0.663987 0.665286 0.746588 1625.86 867.255)" stroke="#0078B8" stroke-width="0.3"/>
<line y1="-0.15" x2="538.512" y2="-0.15" transform="matrix(0.96796 0.251106 -0.251932 0.967745 1260.43 593.66)" stroke="#0078B8" stroke-width="0.3"/>
<line y1="-0.15" x2="538.512" y2="-0.15" transform="matrix(0.96796 0.251106 -0.251932 0.967745 1260.43 593.66)" stroke="#0078B8" stroke-width="0.3"/>
<line y1="-0.15" x2="640.282" y2="-0.15" transform="matrix(0.990648 -0.136442 0.136912 0.990583 1147.4 816.245)" stroke="#0078B8" stroke-width="0.3"/>
<line y1="-0.15" x2="945.995" y2="-0.15" transform="matrix(0.9946 -0.103787 0.104147 0.994562 840.805 827.066)" stroke="#0078B8" stroke-width="0.3"/>
<line y1="-0.15" x2="1153.05" y2="-0.15" transform="matrix(0.999973 -0.00739707 0.00742318 0.999972 628.667 737.413)" stroke="#0078B8" stroke-width="0.3"/>
<line y1="-0.15" x2="1565.03" y2="-0.15" transform="matrix(0.999923 -0.0123637 0.012407 0.999923 216.782 748.233)" stroke="#0078B8" stroke-width="0.3"/>
<line y1="-0.15" x2="1522.94" y2="-0.15" transform="matrix(0.992987 0.118225 -0.118634 0.992938 269.429 548.833)" stroke="#0078B8" stroke-width="0.3"/>
<line y1="-0.15" x2="1740.95" y2="-0.15" transform="matrix(0.986933 0.161132 -0.161682 0.986843 63.4863 448.361)" stroke="#0078B8" stroke-width="0.3"/>
<line y1="-0.15" x2="1830.27" y2="-0.15" transform="matrix(0.969227 0.246168 -0.246979 0.969021 7.74219 278.33)" stroke="#0078B8" stroke-width="0.3"/>
<line y1="-0.15" x2="1777.16" y2="-0.15" transform="matrix(0.942427 0.334413 -0.335454 0.942056 106.843 134.577)" stroke="#0078B8" stroke-width="0.3"/>
<line y1="-0.15" x2="1551.9" y2="-0.15" transform="matrix(0.93255 0.361041 -0.362142 0.932123 334.464 168.583)" stroke="#0078B8" stroke-width="0.3"/>
<line y1="-0.15" x2="550.339" y2="-0.15" transform="matrix(0.506451 0.862269 -0.863042 0.505132 978.616 119.12)" stroke="#0078B8" stroke-width="0.3"/>
<line y1="-0.15" x2="717.266" y2="-0.15" transform="matrix(0.23531 0.97192 -0.972108 0.234533 978.616 119.12)" stroke="#0078B8" stroke-width="0.3"/>
<line y1="-0.15" x2="989.263" y2="-0.15" transform="matrix(0.655169 0.755482 -0.756617 0.653859 978.616 119.12)" stroke="#0078B8" stroke-width="0.3"/>
<ellipse cx="1218.63" cy="17.5111" rx="4.15479" ry="4.14754" fill="#0078B8"/>
<ellipse cx="1660.45" cy="182.966" rx="4.66711" ry="4.65895" fill="#0078B8"/>
<ellipse cx="218.774" cy="746.105" rx="4.61076" ry="4.60274" fill="#0078B8"/>
<ellipse cx="1256.77" cy="589.05" rx="5.12311" ry="5.11411" fill="#0078B8"/>
<ellipse cx="273.982" cy="549.208" rx="5.12307" ry="5.14208" fill="#0078B8"/>
<ellipse cx="63.4864" cy="450.814" rx="7.74221" ry="7.77095" fill="#0078B8"/>
<ellipse cx="705.497" cy="183.422" rx="5.12307" ry="5.14208" fill="#0078B8"/>
<ellipse cx="1509.73" cy="4.65895" rx="4.66711" ry="4.65895" fill="#0078B8"/>
<ellipse cx="979.127" cy="118.532" rx="4.15479" ry="4.14753" fill="#0078B8"/>
<ellipse cx="6.14768" cy="276.739" rx="6.14768" ry="6.13693" fill="#0078B8"/>
<ellipse cx="108.322" cy="132.96" rx="5.12308" ry="5.11411" fill="#0078B8"/>
<ellipse cx="334.918" cy="167.939" rx="4.09845" ry="4.09128" fill="#0078B8"/>
<line y1="-0.15" x2="262.434" y2="-0.15" transform="matrix(0.920448 -0.390866 0.388417 0.921484 978.616 119.771)" stroke="#0078B8" stroke-width="0.3"/>
<line y1="-0.15" x2="272.004" y2="-0.15" transform="matrix(0.916528 0.39997 -0.397485 0.917609 978.616 119.771)" stroke="#0078B8" stroke-width="0.3"/>
<line y1="-0.15" x2="499.96" y2="-0.15" transform="matrix(-0.811449 -0.584423 0.581571 -0.813496 1633.61 520.753)" stroke="#0078B8" stroke-width="0.3"/>
<line y1="-0.15" x2="749.956" y2="-0.15" transform="matrix(-0.739167 -0.673522 0.670792 -0.741646 1782.26 733.677)" stroke="#0078B8" stroke-width="0.3"/>
<line y1="-0.15" x2="756.553" y2="-0.15" transform="matrix(-0.526004 -0.850482 0.848731 -0.528825 1625.86 872)" stroke="#0078B8" stroke-width="0.3"/>
<line y1="-0.15" x2="369.516" y2="-0.15" transform="matrix(-0.0796187 -0.996825 0.996778 -0.080207 1257.33 596.908)" stroke="#0078B8" stroke-width="0.3"/>
<line y1="-0.15" x2="597.596" y2="-0.15" transform="matrix(0.134738 -0.990881 0.990747 0.135722 1147.4 820.711)" stroke="#0078B8" stroke-width="0.3"/>
<line y1="-0.15" x2="714.917" y2="-0.15" transform="matrix(0.537144 -0.84349 0.841679 0.539978 843.901 831.591)" stroke="#0078B8" stroke-width="0.3"/>
<line y1="-0.15" x2="788.763" y2="-0.15" transform="matrix(0.759731 -0.650237 0.647453 0.762105 628.667 741.448)" stroke="#0078B8" stroke-width="0.3"/>
<line y1="-0.15" x2="1138.73" y2="-0.15" transform="matrix(0.887944 -0.459951 0.457267 0.889329 216.782 752.327)" stroke="#0078B8" stroke-width="0.3"/>
<line y1="-0.15" x2="1011.53" y2="-0.15" transform="matrix(0.947557 -0.319586 0.317465 0.94827 269.429 551.836)" stroke="#0078B8" stroke-width="0.3"/>
<line y1="-0.15" x2="1185.45" y2="-0.15" transform="matrix(0.982268 -0.187481 0.186145 0.982522 63.4863 450.814)" stroke="#0078B8" stroke-width="0.3"/>
<line y1="-0.15" x2="1221.25" y2="-0.15" transform="matrix(0.999118 -0.0419965 0.041687 0.999131 7.74219 279.853)" stroke="#0078B8" stroke-width="0.3"/>
<line y1="-0.15" x2="1124.94" y2="-0.15" transform="matrix(0.996558 0.0828943 -0.0822864 0.996609 106.843 135.313)" stroke="#0078B8" stroke-width="0.3"/>
<line y1="-0.15" x2="895.402" y2="-0.15" transform="matrix(0.997822 0.0659584 -0.0654735 0.997854 334.464 169.506)" stroke="#0078B8" stroke-width="0.3"/>
<line y1="-0.15" x2="526.723" y2="-0.15" transform="matrix(0.996581 0.0826191 -0.0820132 0.996631 702.993 185.048)" stroke="#0078B8" stroke-width="0.3"/>
<line y1="-0.15" x2="543.426" y2="-0.15" transform="matrix(0.977348 -0.211639 0.210146 0.97767 978.616 119.771)" stroke="#0078B8" stroke-width="0.3"/>
<line y1="-0.15" x2="685.976" y2="-0.15" transform="matrix(0.995462 0.0951578 -0.0944616 0.995529 978.616 119.771)" stroke="#0078B8" stroke-width="0.3"/>
<line y1="-0.15" x2="435.59" y2="-0.15" transform="matrix(0.995349 -0.0963363 0.0956316 0.995417 1227.92 227.011)" stroke="#0078B8" stroke-width="0.3"/>
<line y1="-0.15" x2="336.86" y2="-0.15" transform="matrix(0.0827405 -0.996571 0.99652 0.0833516 1633.61 520.753)" stroke="#0078B8" stroke-width="0.3"/>
<line y1="-0.15" x2="561.767" y2="-0.15" transform="matrix(-0.214998 -0.976615 0.976278 -0.216522 1782.26 733.677)" stroke="#0078B8" stroke-width="0.3"/>
<line y1="-0.15" x2="577.028" y2="-0.15" transform="matrix(0.700388 -0.713762 0.711162 0.703028 1257.33 596.908)" stroke="#0078B8" stroke-width="0.3"/>
<line y1="-0.15" x2="687.875" y2="-0.15" transform="matrix(0.0517742 -0.998659 0.998639 0.0521583 1625.86 872)" stroke="#0078B8" stroke-width="0.3"/>
<line y1="-0.15" x2="817.527" y2="-0.15" transform="matrix(0.628827 -0.777545 0.77526 0.631642 1147.4 820.711)" stroke="#0078B8" stroke-width="0.3"/>
<line y1="-0.15" x2="1038.69" y2="-0.15" transform="matrix(0.782651 -0.62246 0.619633 0.784892 848.547 831.591)" stroke="#0078B8" stroke-width="0.3"/>
<line y1="-0.15" x2="1173.15" y2="-0.15" transform="matrix(0.880375 -0.474279 0.471558 0.881835 628.667 741.448)" stroke="#0078B8" stroke-width="0.3"/>
<line y1="-0.15" x2="1552.08" y2="-0.15" transform="matrix(0.930813 -0.365496 0.363155 0.931729 216.782 752.327)" stroke="#0078B8" stroke-width="0.3"/>
<line y1="-0.15" x2="1439.56" y2="-0.15" transform="matrix(0.966996 -0.254792 0.253032 0.967458 269.429 551.836)" stroke="#0078B8" stroke-width="0.3"/>
<line y1="-0.15" x2="1619.94" y2="-0.15" transform="matrix(0.98645 -0.164059 0.16288 0.986646 63.4863 450.814)" stroke="#0078B8" stroke-width="0.3"/>
<line y1="-0.15" x2="1656.36" y2="-0.15" transform="matrix(0.998414 -0.0562989 0.0558845 0.998437 7.74219 278.299)" stroke="#0078B8" stroke-width="0.3"/>
<line y1="-0.15" x2="1555.43" y2="-0.15" transform="matrix(0.999489 0.0319745 -0.0317386 0.999496 106.843 135.313)" stroke="#0078B8" stroke-width="0.3"/>
<line y1="-0.15" x2="1327.11" y2="-0.15" transform="matrix(0.999931 0.0117111 -0.0116247 0.999932 334.464 169.506)" stroke="#0078B8" stroke-width="0.3"/>
<line x1="702.993" y1="184.898" x2="1661.48" y2="184.898" stroke="#0078B8" stroke-width="0.3"/>
<line y1="-0.15" x2="767.984" y2="-0.15" transform="matrix(0.852871 0.522122 -0.519309 0.854586 978.616 119.771)" stroke="#0078B8" stroke-width="0.3"/>
<line y1="-0.15" x2="289.826" y2="-0.15" transform="matrix(0.999079 -0.0429 0.0425839 0.999093 1220.17 17.1951)" stroke="#0078B8" stroke-width="0.3"/>
<line y1="-0.15" x2="472.15" y2="-0.15" transform="matrix(0.934674 0.355507 -0.353211 0.935544 1220.17 17.1951)" stroke="#0078B8" stroke-width="0.3"/>
<line y1="-0.15" x2="651.535" y2="-0.15" transform="matrix(0.634554 0.772879 -0.770566 0.63736 1220.17 17.1951)" stroke="#0078B8" stroke-width="0.3"/>
<line y1="-0.15" x2="580.903" y2="-0.15" transform="matrix(0.0639739 0.997952 -0.997921 0.0644478 1220.17 17.1951)" stroke="#0078B8" stroke-width="0.3"/>
<line y1="-0.15" x2="806.806" y2="-0.15" transform="matrix(-0.0902037 0.995923 -0.995863 -0.090869 1220.17 17.1951)" stroke="#0078B8" stroke-width="0.3"/>
<line y1="-0.15" x2="946.191" y2="-0.15" transform="matrix(0.428763 0.903417 -0.902179 0.431361 1220.17 17.1951)" stroke="#0078B8" stroke-width="0.3"/>
<line y1="-0.15" x2="910.651" y2="-0.15" transform="matrix(0.617234 0.78678 -0.784551 0.620064 1220.17 17.1951)" stroke="#0078B8" stroke-width="0.3"/>
<line y1="-0.15" x2="235.649" y2="-0.15" transform="matrix(0.643956 0.765063 -0.762705 0.646746 1509.73 4.76099)" stroke="#0078B8" stroke-width="0.3"/>
<line y1="-0.15" x2="359.873" y2="-0.15" transform="matrix(-0.7831 0.621896 -0.619068 -0.785338 1509.73 4.76099)" stroke="#0078B8" stroke-width="0.3"/>
<line y1="-0.15" x2="530.653" y2="-0.15" transform="matrix(0.23344 0.972371 -0.971976 0.23508 1509.73 4.76099)" stroke="#0078B8" stroke-width="0.3"/>
<line y1="-0.15" x2="259.68" y2="-0.15" transform="matrix(-0.572438 -0.819948 0.81795 -0.57529 1782.26 733.677)" stroke="#0078B8" stroke-width="0.3"/>
<line y1="-0.15" x2="351.33" y2="-0.15" transform="matrix(0.0220367 -0.999757 0.999754 0.0222005 1625.86 872)" stroke="#0078B8" stroke-width="0.3"/>
<line y1="-0.15" x2="571.294" y2="-0.15" transform="matrix(0.85107 -0.525052 0.522236 0.852801 1147.4 820.711)" stroke="#0078B8" stroke-width="0.3"/>
<line y1="-0.15" x2="383.901" y2="-0.15" transform="matrix(0.980127 -0.198372 0.196965 0.980411 1257.33 596.908)" stroke="#0078B8" stroke-width="0.3"/>
<line y1="-0.15" x2="851.561" y2="-0.15" transform="matrix(0.930999 -0.365021 0.362682 0.931913 840.805 831.591)" stroke="#0078B8" stroke-width="0.3"/>
<line y1="-0.15" x2="1028.89" y2="-0.15" transform="matrix(0.976724 -0.214499 0.212987 0.977055 628.667 741.448)" stroke="#0078B8" stroke-width="0.3"/>
<line y1="-0.15" x2="1435.63" y2="-0.15" transform="matrix(0.986905 -0.161306 0.160145 0.987094 216.782 752.327)" stroke="#0078B8" stroke-width="0.3"/>
<line y1="-0.15" x2="1364.53" y2="-0.15" transform="matrix(0.999741 -0.0227799 0.0226118 0.999744 269.429 551.836)" stroke="#0078B8" stroke-width="0.3"/>
<line y1="-0.15" x2="1571.68" y2="-0.15" transform="matrix(0.999009 0.0444993 -0.0441714 0.999024 63.4863 450.814)" stroke="#0078B8" stroke-width="0.3"/>
<line y1="-0.15" x2="1643.61" y2="-0.15" transform="matrix(0.989201 0.146567 -0.145508 0.989357 7.74219 279.853)" stroke="#0078B8" stroke-width="0.3"/>
<line y1="-0.15" x2="1574.67" y2="-0.15" transform="matrix(0.96958 0.244775 -0.243075 0.970008 106.843 135.313)" stroke="#0078B8" stroke-width="0.3"/>
<line y1="-0.15" x2="1345.79" y2="-0.15" transform="matrix(0.96534 0.260997 -0.2592 0.965824 334.464 169.506)" stroke="#0078B8" stroke-width="0.3"/>
<line y1="-0.15" x2="989.313" y2="-0.15" transform="matrix(0.940667 0.339331 -0.337112 0.941465 702.993 185.048)" stroke="#0078B8" stroke-width="0.3"/>
<line y1="-0.15" x2="778.195" y2="-0.15" transform="matrix(0.350202 0.936674 -0.935818 0.352485 1509.73 4.76099)" stroke="#0078B8" stroke-width="0.3"/>
<line y1="-0.15" x2="874.98" y2="-0.15" transform="matrix(0.132727 0.991153 -0.991022 0.133696 1509.73 4.76099)" stroke="#0078B8" stroke-width="0.3"/>
<line y1="-0.15" x2="643.693" y2="-0.15" transform="matrix(-0.392106 0.91992 -0.918866 -0.39457 1509.73 4.76099)" stroke="#0078B8" stroke-width="0.3"/>
<line y1="-0.15" x2="892.783" y2="-0.15" transform="matrix(-0.40585 0.91394 -0.912818 -0.408366 1509.73 4.76099)" stroke="#0078B8" stroke-width="0.3"/>
<line y1="-0.15" x2="1061.59" y2="-0.15" transform="matrix(-0.6272 0.778858 -0.776581 -0.630018 1509.73 4.76099)" stroke="#0078B8" stroke-width="0.3"/>
<path d="M1509.83 4.87817L628.765 741.564" stroke="#0078B8" stroke-width="0.3"/>
<line y1="-0.15" x2="1493.51" y2="-0.15" transform="matrix(-0.865261 0.501322 -0.498543 -0.866865 1509.73 4.76099)" stroke="#0078B8" stroke-width="0.3"/>
<line y1="-0.15" x2="1355.6" y2="-0.15" transform="matrix(-0.91495 0.403568 -0.401069 -0.916048 1509.73 4.76099)" stroke="#0078B8" stroke-width="0.3"/>
<line y1="-0.15" x2="1513.47" y2="-0.15" transform="matrix(-0.955583 0.294722 -0.292733 -0.956194 1509.73 4.76099)" stroke="#0078B8" stroke-width="0.3"/>
<line y1="-0.15" x2="1526.97" y2="-0.15" transform="matrix(-0.983818 0.17917 -0.177889 -0.984051 1509.73 4.76099)" stroke="#0078B8" stroke-width="0.3"/>
<line y1="-0.15" x2="1408.95" y2="-0.15" transform="matrix(-0.995698 0.092659 -0.0919808 -0.995761 1509.73 4.76099)" stroke="#0078B8" stroke-width="0.3"/>
<line y1="-0.15" x2="1186.76" y2="-0.15" transform="matrix(-0.990368 0.138461 -0.137458 -0.990508 1509.73 4.76099)" stroke="#0078B8" stroke-width="0.3"/>
<line y1="-0.15" x2="211.511" y2="-0.15" transform="matrix(-0.0366042 -0.99933 0.99932 -0.0368761 1227.92 228.565)" stroke="#0078B8" stroke-width="0.3"/>
<line y1="-0.15" x2="897.118" y2="-0.15" transform="matrix(0.419423 -0.907791 0.906601 0.421988 843.901 831.591)" stroke="#0078B8" stroke-width="0.3"/>
<line y1="-0.15" x2="935.105" y2="-0.15" transform="matrix(0.632555 -0.774515 0.772212 0.635365 628.667 741.448)" stroke="#0078B8" stroke-width="0.3"/>
<line y1="-0.15" x2="1243.87" y2="-0.15" transform="matrix(0.806669 -0.591004 0.588154 0.808749 216.782 752.327)" stroke="#0078B8" stroke-width="0.3"/>
<line y1="-0.15" x2="543.737" y2="-0.15" transform="matrix(0.951159 -0.308702 0.306638 0.951826 702.993 185.048)" stroke="#0078B8" stroke-width="0.3"/>
<line y1="-0.15" x2="1090.76" y2="-0.15" transform="matrix(0.871635 -0.490155 0.487399 0.873179 269.429 551.836)" stroke="#0078B8" stroke-width="0.3"/>
<line y1="-0.15" x2="1235.29" y2="-0.15" transform="matrix(0.936366 -0.351025 0.34875 0.937216 63.4863 450.814)" stroke="#0078B8" stroke-width="0.3"/>
<line y1="-0.15" x2="1240.56" y2="-0.15" transform="matrix(0.977329 -0.211726 0.210233 0.977651 7.74219 279.853)" stroke="#0078B8" stroke-width="0.3"/>
<line y1="-0.15" x2="1119.58" y2="-0.15" transform="matrix(0.994419 -0.105503 0.104732 0.9945 106.843 135.313)" stroke="#0078B8" stroke-width="0.3"/>
<line y1="-0.15" x2="898.71" y2="-0.15" transform="matrix(0.985534 -0.169477 0.168261 0.985742 334.464 169.506)" stroke="#0078B8" stroke-width="0.3"/>
</svg>
